<?xml version="1.0"?>
<svg width="1024" height="1024" xmlns="http://www.w3.org/2000/svg" xmlns:svg="http://www.w3.org/2000/svg" preserveAspectRatio="xMidYMid meet">

 <g class="layer">
  <title>Layer 1</title>
  <path d="m492.500007,74.599986c-78.400001,4.7 -146.400002,25.7 -209.900003,64.600001c-110.600002,67.800001 -185.800003,181.900003 -204.600003,310.300005c-3.5,23.7 -4.3,36.700001 -4.3,63.500001c0,26.8 0.8,39.800001 4.3,63.500001c18.8,128.400002 94.000001,242.500004 204.600003,310.300005c58.000001,35.500001 119.900002,56.100001 190.900003,63.300001c15.5,1.6 61.500001,1.6 77.000001,0c71.000001,-7.2 132.900002,-27.8 190.900003,-63.300001c110.600002,-67.800001 185.800003,-181.900003 204.600003,-310.300005c3.5,-23.7 4.3,-36.700001 4.3,-63.500001c0,-26.8 -0.8,-39.800001 -4.3,-63.500001c-27.7,-189.900003 -175.700003,-339.400005 -366.000005,-369.900006c-23.6,-3.8 -66.900001,-6.3 -87.500001,-5zm72.500001,18.3c51.600001,7 92.000001,19.5 137.500002,42.600001c25.7,13 56.500001,32.8 56.500001,36.300001c0,1 -5.2,12.1 -11.5,24.7c-13.8,27.8 -21.6,38.800001 -41.400001,58.500001c-14.5,14.4 -33.1,30 -35.800001,30c-0.9,0 -9.8,-1.6 -19.7,-3.6c-52.700001,-10.3 -84.100001,-12.9 -147.000002,-12.1c-44.200001,0.6 -53.400001,1.2 -83.700001,5.2c-15.6,2.1 -59.600001,9.7 -63.500001,11c-1.5,0.5 -16.7,-11.7 -29.7,-23.7c-22.2,-20.5 -35.800001,-38.700001 -49.500001,-66.300001c-9.6,-19.4 -11,-23 -9.6,-25.3c2.5,-4.3 36.300001,-25 60.400001,-37.000001c44.700001,-22.3 92.400001,-36.200001 141.500002,-41.100001c6.1,-0.6 12.6,-1.3 14.5,-1.5c1.9,-0.2 17.5,-0.3 34.500001,-0.1c24.5,0.3 34.300001,0.8 46.500001,2.4zm-346.100005,151.600002c1.5,18.8 5.4,53.700001 8.6,76.000001c2.7,18.4 9.1,55.400001 9.7,56.100001c0.2,0.2 9,2.4 19.4,4.8c17,4 26.6,6.8 28.6,8.5c0.4,0.3 -5.7,0.7 -13.5,0.7c-10.2,0.1 -17.2,0.7 -24.7,2.3c-13.1,2.6 -17,2.7 -20.2,0.1c-3.7,-2.8 -6.6,-10.6 -8.3,-21.6c-0.8,-5.3 -1.6,-9.8 -1.8,-10c-0.1,-0.2 -3.5,4.5 -7.4,10.4c-8,12 -15.4,26.5 -20.3,39.400001c-1.8,4.9 -3.6,8.8 -4.1,8.8c-0.5,0 -1.5,-2.1 -2.4,-4.8c-1.5,-4.6 -1.5,-4.4 -1.1,9.3c0.3,10.7 0.8,15.3 2.3,19.5c3.2,8.7 7.8,17.2 13.3,24.4c7,9.2 3.9,8.6 -5.9,-1.2c-5,-5 -8.7,-9.6 -10.3,-13.2l-2.6,-5.5l-2.7,6c-4.4,9.9 -10.3,28.8 -13,41.800001c-2.3,10.7 -2.7,15.9 -3.5,43.700001c-0.5,17.3 -0.9,49.000001 -0.9,70.500001l-0.1,39.000001l6.8,-12.5c7.4,-13.8 11.4,-19.9 11.9,-18.3c0.2,0.6 -0.5,4.6 -1.7,8.9c-1.1,4.3 -2.5,11.9 -3.1,16.9c-1.4,11.1 -0.6,38.100001 1.6,52.000001c3.1,20.3 10.1,41.600001 17.3,53.000001l3.2,5l0,-7.8c0,-8.1 1.7,-21.2 3,-23.6c0.4,-0.8 1.7,1.9 3.4,7.2c5.9,19.1 13.9,33.900001 29.4,54.700001c11.4,15.2 33.600001,37.400001 48.400001,48.400001c27.6,20.4 64.500001,41.500001 89.400001,51.200001c9.8,3.8 39.400001,13.4 41.200001,13.4c0.4,0 -4.8,-3 -11.5,-6.8c-17.6,-9.6 -29.3,-18.2 -41.400001,-30.2c-38.200001,-38.000001 -47.400001,-86.600001 -23.8,-126.200002c6.7,-11.3 22.7,-26.8 26.3,-25.5c0.7,0.3 1.9,2.7 2.7,5.4c1.7,5.9 1.8,30.1 0.1,35.700001l-1.1,4l3.1,-4c6.2,-7.8 28.9,-29.5 38.100001,-36.300001c15.1,-11.2 56.100001,-37.200001 58.500001,-37.100001c0.4,0.1 7.9,12.7 16.6,28.1c8.8,15.4 16.3,27.6 16.7,27.2c0.3,-0.4 1.4,-5.9 2.3,-12.2c0.9,-6.3 1.8,-11.6 2,-11.9c0.3,-0.2 3.5,3.7 7.3,8.7c3.7,5 7.1,9.1 7.4,9.1c0.4,0 3.7,-4.1 7.4,-9.1c3.7,-5 6.9,-8.9 7.1,-8.6c0.3,0.2 1.4,5.8 2.5,12.3c1.1,6.5 2.2,12 2.3,12.1c0.2,0.2 7.7,-12.1 16.7,-27.2c12.4,-20.8 16.8,-27.5 18.3,-27.5c3.7,0 46.000001,27 61.600001,39.400001c9.5,7.6 20.9,18.2 30.7,28.7c4.2,4.5 7.3,7.5 7,6.5c-4.4,-11.5 -2.7,-43.600001 2.4,-43.600001c3.5,0 17.5,13.1 23.8,22.3c4.6,6.7 10.5,19.9 12.7,28.2c2.9,10.8 2.6,34.100001 -0.5,45.500001c-5.6,20.2 -17,39.000001 -34.000001,56.000001c-12.6,12.6 -22.8,20 -41.600001,30.4c-13.7,7.6 -12.6,7.6 11.5,-0.4c27.9,-9.2 49.900001,-19.9 80.200001,-38.800001c20.3,-12.6 33.700001,-22.9 47.700001,-36.600001c27.9,-27.3 46.900001,-55.700001 55.800001,-83.400001c2.2,-6.8 3.9,-10.8 4.4,-10c1.1,2.1 2.9,15.2 2.9,22c0,10.6 1.2,10.4 6.8,-1.3c6.2,-12.9 9.4,-23.3 12.8,-41.400001c5.1,-27.5 4.2,-59.600001 -2.2,-82.000001c-1.5,-5.1 4,2.8 11.1,16l7.5,14l0,-59.000001c-0.1,-32.5 -0.5,-64.700001 -1,-71.700001c-1.4,-19 -8.3,-47.300001 -15.7,-64.100001l-2.6,-5.8l-3.1,5.6c-1.8,3 -4.8,7.4 -6.8,9.8c-3.5,4.2 -14.4,12.5 -15.2,11.6c-0.3,-0.3 2.2,-3.6 5.4,-7.4c11.1,-13.1 16.1,-27.2 15.9,-45.200001c-0.1,-7.8 -0.3,-9.2 -1,-6.6c-0.5,1.8 -1.3,3.3 -1.8,3.3c-0.5,0 -2.8,-4.8 -5.1,-10.8c-2.3,-5.9 -6.7,-15.4 -9.7,-21.2c-5.5,-10.4 -16.4,-27.3 -17.1,-26.5c-0.2,0.2 -1.2,5.1 -2.2,10.8c-2.1,12.3 -5.6,19.9 -10.2,21.8c-2.5,1 -5.1,0.8 -16.1,-1.2c-9.8,-1.7 -16.9,-2.4 -27.4,-2.4c-14.1,0 -14.2,0 -10.8,-1.7c3,-1.6 25,-7.5 34.500001,-9.3c1.9,-0.4 5.1,-1.1 7.1,-1.6l3.7,-0.9l2.6,-13.8c7.5,-39.900001 12.6,-79.800001 16.6,-131.700002c0.7,-7.7 1.5,-14.4 1.9,-14.8c1,-1 16,14.6 28.4,29.5c50.100001,60.200001 78.100001,121.400002 91.200001,199.000003c3.7,22 4.8,43.800001 4.2,78.800001c-0.6,31.7 -1.6,42.300001 -6.3,66.400001c-16.4,85.000001 -54.300001,158.500002 -112.400002,218.000003c-69.000001,70.600001 -151.500002,111.700002 -252.500004,125.800002c-13.6,1.8 -20.5,2.2 -46.500001,2.2c-32.7,0 -41.800001,-0.7 -70.000001,-5.5c-70.800001,-11.9 -138.800002,-42.500001 -196.000003,-88.400001c-14.5,-11.6 -40.200001,-36.400001 -53.400001,-51.500001c-36.600001,-41.700001 -64.500001,-90.200001 -82.200001,-142.500002c-24.2,-71.800001 -28.7,-145.800002 -13.3,-221.500003c14.4,-71.300001 47.100001,-135.600002 97.700001,-192.400003c5.6,-6.3 12.1,-13.1 14.5,-15.2l4.2,-3.9l0.7,7c0.3,3.9 1.1,13.7 1.7,22zm52.200001,28.6c7.1,14.8 18,28.8 35.100001,45.500001c13.8,13.4 22.5,20.6 53.000001,43.200001c42.900001,31.9 62.800001,49.900001 82.500001,74.400001c8.3,10.4 26.1,35.700001 28.7,40.800001c1.1,2 -5.1,-4.5 -15.8,-16.8c-19.4,-22.3 -47.200001,-46.300001 -75.000001,-64.600001c-15.3,-10.1 -31,-18.7 -66.100001,-36.400001c-16.5,-8.3 -33.4,-17.3 -37.600001,-20.1c-13.3,-8.8 -20.6,-18.8 -24.9,-34.200001c-2,-7.5 -3.7,-19.9 -2.7,-19.9c0.3,0 3.4,4.2 6.9,9.2c8.1,11.9 18.9,23.2 28.3,29.7c4,2.8 7.6,5.1 7.9,5.1c0.3,0 -1.7,-2.8 -4.4,-6.3c-8,-9.8 -15.4,-25.9 -19.5,-41.900001c-1.9,-7.5 -3.7,-16 -4,-19l-0.6,-5.3l2.3,4.5c1.2,2.5 3.8,7.9 5.9,12.1zm488.900007,-1.6c-4.5,22.3 -13.5,42.700001 -23.8,53.700001c-4.3,4.7 -1.8,4.1 5.4,-1.3c12.6,-9.4 23.5,-21.4 30.3,-33.3c5.5,-9.6 6.3,-7.4 3.1,8.6c-2.9,14.1 -6.5,21.5 -14.7,30c-9.5,9.9 -17.3,14.7 -52.500001,32.4c-45.500001,22.8 -63.900001,34.000001 -88.100001,53.300001c-22.7,18.2 -35.700001,30.7 -60.500001,58.600001c-5,5.6 -5.2,5.7 -3.2,2c2.9,-5.5 17,-25.5 25.5,-36.200001c9.5,-11.9 32.4,-35.400001 46.500001,-47.500001c6.3,-5.5 23.9,-19.3 39.000001,-30.8c15.1,-11.4 32.5,-25 38.500001,-30.3c24.7,-21.2 43.100001,-43.900001 51.200001,-63.000001c1.8,-4.4 3.7,-8.5 4,-9.1c1.6,-2.5 1.3,2.9 -0.7,12.9zm-246.000004,35.500001c0,8.8 -1.2,13.2 -2.3,8.8c-0.9,-3 -0.9,-16.2 -0.1,-18.3c1.3,-3.4 2.4,0.9 2.4,9.5zm-99.000001,0.9c10.7,2.4 18.2,5.7 28.4,12.6c8.5,5.7 19,14.4 18.2,15.2c-0.2,0.2 -3.3,-1.3 -6.8,-3.5c-16.4,-10.2 -33.700001,-18.7 -45.400001,-22.3c-13.2,-4 -9.5,-5.3 5.6,-2zm210.000003,-1.5c0,0.2 -3.7,1.6 -8.2,3c-11.3,3.6 -34.000001,15 -47.200001,23.6c-6,3.9 -11,6.9 -11.3,6.7c-0.5,-0.6 7.7,-7.5 18.2,-15.4c13,-9.8 21.6,-14 34.500001,-16.7c6.3,-1.4 14,-2 14,-1.2zm-130.800002,20.7c1.1,0.6 1.7,1.3 1.5,1.6c-1,0.9 -8.5,-0.8 -10.4,-2.3c-1.6,-1.4 -1.4,-1.5 2.6,-0.9c2.4,0.3 5.2,1 6.3,1.6zm-47.400001,13.3c4.7,2.4 14.2,11.5 14.2,13.6c0,1 -14.6,-9.6 -19.5,-14.2c-2.7,-2.5 -0.4,-2.3 5.3,0.6zm139.200002,-1.9c0,0.2 -2.6,2.2 -5.8,4.4c-3.3,2.2 -8.4,6.3 -11.5,9.1c-3.2,2.9 -5.7,4.9 -5.7,4.6c0,-1.6 5.1,-8.5 8.6,-11.5c4.9,-4.4 14.4,-8.7 14.4,-6.6zm-248.300004,70.600001c10.9,5 20.1,9.4 20.5,9.7c0.4,0.4 -2.6,2.4 -6.7,4.5c-14.3,7.4 -28.1,23.3 -32.5,37.400001c-2.5,8.1 -2.7,24.1 -0.5,32.7c5.2,19.9 23.2,37.900001 43.100001,43.100001c8,2.1 25.2,2.1 32.4,-0.1c20,-5.9 35.900001,-21.6 43.500001,-42.900001c1,-2.8 2.1,-5.4 2.5,-5.8c0.7,-0.8 30,33.600001 30,35.200001c0,0.6 -2.7,5 -5.9,9.8c-13.5,20.1 -35.900001,36.200001 -60.600001,43.500001c-7.1,2 -10,2.3 -26,2.3c-20.5,-0.1 -27.2,-1.4 -41.900001,-8.5c-22.6,-10.9 -38.200001,-26.2 -48.700001,-47.500001c-7.8,-16.1 -9.3,-22.8 -9.3,-44.000001c-0.1,-14.7 0.2,-19.3 1.8,-25c2.9,-10.7 7.8,-21.5 13.5,-29.7c5.7,-8.4 21,-23.8 23.5,-23.8c0.9,0 10.5,4.1 21.3,9.1zm379.500006,-2.4c27.6,26.6 37.800001,63.100001 27.7,99.300001c-9,32.7 -35.600001,59.000001 -70.400001,69.700001c-8.4,2.5 -10.2,2.7 -27,2.7c-15.6,0 -19.1,-0.2 -26.4,-2.2c-17.3,-4.7 -32,-13.3 -46.400001,-27.2c-10.5,-10 -20.4,-24.1 -19.1,-27c1.3,-2.7 28.2,-34.000001 29.3,-34.000001c0.5,0 1.7,2.6 2.6,5.7c3.6,12.5 14.5,27.1 25.8,34.600001c34.000001,22.6 80.400001,5.9 92.800001,-33.3c2.6,-8.3 2.9,-22.8 0.5,-31.9c-4.2,-16.3 -16.8,-31.9 -31.8,-39.500001c-4.3,-2.2 -7.8,-4.2 -7.8,-4.5c0.1,-0.9 39.300001,-19 41.300001,-19c1.1,-0.1 5,2.9 8.9,6.6zm-57.500001,44.100001c4.7,2.4 10.9,9.1 12.9,13.8c2.4,5.8 2.8,14.4 1,20.6c-2.2,7.6 -11,16 -19.3,18.4c-13.3,3.9 -27.1,-2.1 -34.000001,-14.9c-1.3,-2.4 -1.8,-5.5 -1.8,-12.2c0,-6.7 0.5,-9.8 1.8,-12.2c7.9,-14.6 25.5,-20.6 39.400001,-13.5zm-271.300004,-1.7c2.4,0.7 5.9,3.1 9.6,6.7c7.1,6.9 9.6,13.7 8.7,23.8c-1.4,17.5 -18.8,29 -36.200001,23.9c-4.8,-1.3 -7,-2.8 -12,-7.8c-7.2,-7.3 -9.1,-12.2 -8.3,-22c0.9,-10.4 7.2,-19.7 16.2,-23.8c4.7,-2.1 15.8,-2.5 22,-0.8zm-205.400003,42.300001c3,7.6 9.8,16.6 16.1,21.2c5.6,4.1 5.9,5.3 0.8,3.1c-10.8,-4.7 -18,-14.5 -20.4,-28.2c-1,-5.3 0.5,-3.7 3.5,3.9zm661.90001,2.3c-1.8,6.5 -8.1,15.6 -13.1,19c-4.1,2.9 -8.8,5 -8.8,4c0,-0.3 3.2,-3.6 7.1,-7.3c5.4,-5.3 8,-8.8 11.2,-15.3c4.3,-8.7 6,-8.9 3.6,-0.4zm-342.900005,66.800001c5.2,5.2 9.9,9.5 10.5,9.5c0.5,0 5.3,-4.4 10.7,-9.7c11.4,-11.4 10.8,-11.5 17.3,2.3c5.5,11.5 8.5,20.3 8.5,24.9c0,1.9 -2.2,10.2 -4.9,18.3c-6.8,20.5 -30,84.500001 -31.1,85.600001c-1.2,1.2 -1.9,-0.5 -11.3,-26.5c-13.7,-37.700001 -25.7,-74.100001 -25.7,-77.700001c0,-7.7 12.5,-36.200001 15.9,-36.200001c0.3,0 4.9,4.3 10.1,9.5zm-264.300004,3.7c-0.3,0.7 -0.5,0.2 -0.5,-1.2c0,-1.4 0.2,-1.9 0.5,-1.3c0.2,0.7 0.2,1.9 0,2.5zm550.000008,5.2c-2.1,23.9 -12.7,52.900001 -24.6,67.000001c-12.9,15.2 -31.5,26.2 -52.200001,30.7c-12.8,2.8 -15.3,2 -4.4,-1.5c15,-4.7 30.4,-13 39.900001,-21.5c10.1,-9.2 23,-28.6 30.5,-46.200001c3.4,-8 7.2,-21.2 9.6,-33.2c1.1,-5.4 1.8,-2.5 1.2,4.7zm-542.600008,19.8c7.1,22.3 22.4,45.800001 37.400001,57.700001c7.7,6.2 21.1,13.4 31.5,17.1c12.7,4.5 8.8,5.6 -5.4,1.5c-29.4,-8.5 -49.700001,-26.7 -61.200001,-54.900001c-4.7,-11.6 -8.3,-25.9 -8.9,-35.900001l-0.5,-8.2l1.5,5c0.9,2.7 3.4,10.7 5.6,17.7zm566.900008,26.6c-1.7,9.8 -6.5,23.5 -10.4,29.5c-5.1,7.9 -21.7,22.9 -23.4,21.2c-0.3,-0.3 2.6,-3.7 6.4,-7.7c11.2,-11.8 20.1,-27.3 24.5,-42.300001c2.8,-9.7 3,-10.3 3.6,-8.7c0.3,0.7 0,4.3 -0.7,8zm-595.900009,1.4c4.7,15.7 12,28.4 23.3,40.500001c7.4,7.9 6.8,9.7 -1.1,3.5c-11.5,-9.3 -17,-17.2 -21.7,-31.6c-2.4,-7.4 -4.4,-19.6 -3.3,-19.6c0.4,0 1.6,3.3 2.8,7.2zm111.600002,51.400001c-0.3,0.3 -1.2,0.4 -1.9,0.1c-0.8,-0.3 -0.5,-0.6 0.6,-0.6c1.1,-0.1 1.7,0.2 1.3,0.5zm-75.800001,46.500001c8.2,5.8 21.3,11.9 31.1,14.6c4.8,1.3 10.5,1.7 22.2,1.8c17.1,0 17.7,0.6 4.3,4c-10.7,2.7 -24.2,2.4 -33.2,-0.8c-12.1,-4.2 -33.1,-19.8 -37.300001,-27.7l-1.3,-2.5l3.4,2.7c1.9,1.5 6.7,5.1 10.8,7.9zm526.100008,0.2c-17.1,16.6 -27.5,21.7 -44.600001,21.7c-9,0 -26.7,-3.1 -27.8,-4.8c-0.2,-0.4 6.9,-0.7 15.7,-0.8c15.6,0 16.5,-0.1 26,-3.3c11.1,-3.8 24.3,-11.1 33.2,-18.2c9.8,-7.8 8.7,-5.5 -2.5,5.4zm-9,56.000001c-6.7,6.5 -11.6,10.3 -16.5,12.7c-6.7,3.4 -7.5,3.5 -19,3.7l-12,0.2l8.5,-1.9c15.4,-3.6 27.7,-9.5 41.000001,-19.9c3.5,-2.7 6.7,-4.8 7,-4.5c0.3,0.3 -3.8,4.7 -9,9.7zm-514.300008,-4.8c11,9 24.3,15.7 38.800001,19.6l7,1.9l-10.6,-0.3c-9.8,-0.2 -11.1,-0.5 -17.3,-3.7c-6.7,-3.3 -18.6,-13.4 -22.7,-19.1c-2.8,-4 -1.7,-3.6 4.8,1.6z" fill="#ffffff" id="svg_2"/>
 </g>
</svg>